<svg width="40" height="40" viewBox="0 0 40 40" fill="none" xmlns="http://www.w3.org/2000/svg">
<rect width="40" height="40" rx="5" fill="#FFCC16"/>
<path d="M26.6875 20.7188L21.6875 25.7188C21.5 25.9062 21.25 26 21 26C20.7188 26 20.4688 25.9062 20.2812 25.7188C19.875 25.3438 19.875 24.6875 20.2812 24.3125L23.5625 21H14C13.4375 21 13 20.5625 13 20C13 19.4688 13.4375 19 14 19H23.5625L20.2812 15.7188C19.875 15.3438 19.875 14.6875 20.2812 14.3125C20.6562 13.9062 21.3125 13.9062 21.6875 14.3125L26.6875 19.3125C27.0938 19.6875 27.0938 20.3438 26.6875 20.7188Z" fill="#242424"/>
</svg>
