<svg width="40" height="40" viewBox="0 0 40 40" fill="none" xmlns="http://www.w3.org/2000/svg">
<g clip-path="url(#clip0_149_276)">
<circle cx="20" cy="20" r="20" fill="#929FBB"/>
<path fill-rule="evenodd" clip-rule="evenodd" d="M7.45525 35.5774C8.95751 30.0582 14.0048 26 20 26C25.9952 26 31.0425 30.0582 32.5448 35.5774C37.0914 31.9113 40 26.2953 40 20C40 8.9543 31.0457 0 20 0C8.9543 0 0 8.9543 0 20C0 26.2953 2.90859 31.9113 7.45525 35.5774ZM27 16C27 19.866 23.866 23 20 23C16.134 23 13 19.866 13 16C13 12.134 16.134 9 20 9C23.866 9 27 12.134 27 16Z" fill="#E2E7F5"/>
</g>
<defs>
<clipPath id="clip0_149_276">
<rect width="40" height="40" fill="white"/>
</clipPath>
</defs>
</svg>
