<svg width="28" height="28" viewBox="0 0 28 28" fill="none" xmlns="http://www.w3.org/2000/svg">
<g clip-path="url(#clip0_2153_2275)">
<path d="M14 0C6.26864 0 0 6.3009 0 14.072C0 21.1272 5.16992 26.9519 11.9078 27.9696V17.8017H8.44368V14.1024H11.9078V11.6415C11.9078 7.56626 13.8835 5.77742 17.2525 5.77742C18.8664 5.77742 19.7198 5.89788 20.1242 5.95304V9.18173H17.8259C16.3957 9.18173 15.8962 10.545 15.8962 12.0817V14.1036H20.0883L19.5194 17.8028H15.8962V28.0011C22.7293 27.069 28.0011 21.197 28.0011 14.0732C28 6.3009 21.7314 0 14 0Z" fill="#3B5998"/>
</g>
<defs>
<clipPath id="clip0_2153_2275">
<rect width="28" height="28" fill="white"/>
</clipPath>
</defs>
</svg>
