<svg width="28" height="28" viewBox="0 0 28 28" fill="none" xmlns="http://www.w3.org/2000/svg">
<g clip-path="url(#clip0_2153_2279)">
<path d="M17.2816 7.3248H10.7296C8.8592 7.3248 7.3472 8.8368 7.3472 10.7072V17.2592C7.3472 19.1296 8.8592 20.6416 10.7296 20.6416H17.2816C19.152 20.6416 20.664 19.1296 20.664 17.2592V10.7072C20.664 8.8368 19.152 7.3248 17.2816 7.3248ZM18.1104 13.9888C18.1104 16.2176 16.296 18.032 14.056 18.0208C11.8272 18.0208 10.0128 16.2064 10.024 13.9664C10.024 11.7376 11.8384 9.9232 14.0784 9.9344C16.3072 9.9456 18.1104 11.76 18.1104 13.9888ZM19.3088 9.6656C19.3088 10.2032 18.872 10.6288 18.3456 10.6288C17.808 10.6288 17.3824 10.192 17.3824 9.6656C17.3824 9.128 17.8192 8.7024 18.3456 8.7024H18.3568C18.8832 8.7024 19.3088 9.1392 19.3088 9.6656ZM14.056 11.3792C12.6224 11.3792 11.4576 12.5552 11.4688 13.9776C11.4688 15.4112 12.6448 16.576 14.0672 16.5648C15.5008 16.5648 16.6544 15.4 16.6544 13.9776V13.9664C16.6544 12.5328 15.4896 11.3792 14.056 11.3792Z" fill="url(#paint0_linear_2153_2279)"/>
<path d="M14 0C6.272 0 0 6.272 0 14C0 21.728 6.272 28 14 28C21.728 28 28 21.728 28 14C28 6.272 21.728 0 14 0ZM22.2096 17.2592C22.1872 19.9696 19.992 22.1536 17.2816 22.1536H10.7184C7.9968 22.1536 5.7904 19.9472 5.7904 17.2256V10.7072C5.7904 7.9856 7.9968 5.7792 10.7184 5.768H17.2704C19.992 5.768 22.1984 7.9856 22.1984 10.7072V17.2592H22.2096Z" fill="url(#paint1_linear_2153_2279)"/>
</g>
<defs>
<linearGradient id="paint0_linear_2153_2279" x1="3" y1="28" x2="32" y2="1.61252e-07" gradientUnits="userSpaceOnUse">
<stop stop-color="#FEDA77"/>
<stop offset="0.244792" stop-color="#F58529"/>
<stop offset="0.489583" stop-color="#DD2A7B"/>
<stop offset="0.744792" stop-color="#8134AF"/>
<stop offset="1" stop-color="#515BD4"/>
</linearGradient>
<linearGradient id="paint1_linear_2153_2279" x1="3" y1="28" x2="32" y2="1.61252e-07" gradientUnits="userSpaceOnUse">
<stop stop-color="#FEDA77"/>
<stop offset="0.244792" stop-color="#F58529"/>
<stop offset="0.489583" stop-color="#DD2A7B"/>
<stop offset="0.744792" stop-color="#8134AF"/>
<stop offset="1" stop-color="#515BD4"/>
</linearGradient>
<clipPath id="clip0_2153_2279">
<rect width="28" height="28" fill="white"/>
</clipPath>
</defs>
</svg>
