<svg width="33" height="47" viewBox="0 0 33 47" fill="none" xmlns="http://www.w3.org/2000/svg">
<path fill-rule="evenodd" clip-rule="evenodd" d="M0 30.5C0 39.5746 7.4243 47 16.5 47C25.5757 47 33 39.5757 33 30.5V14H16.5C7.4243 14.0011 0 21.4254 0 30.5ZM16.5 38.4074C12.1497 38.4074 8.58723 34.8503 8.58723 30.5C8.58723 26.1497 12.1508 22.5872 16.5 22.5872H24.4074V30.5C24.4074 34.8503 20.8503 38.4074 16.5 38.4074Z" fill="#49A2A8"/>
<path fill-rule="evenodd" clip-rule="evenodd" d="M31.686 8.79026C29.934 10.4019 27.066 10.4039 25.314 8.79232C23.562 7.1807 23.562 4.54033 25.314 2.92871L28.4989 0L31.686 2.9318C33.438 4.54342 33.438 7.17967 31.686 8.79026Z" fill="#97D8D2"/>
</svg>
