<svg width="75" height="108" viewBox="0 0 75 108" fill="none" xmlns="http://www.w3.org/2000/svg">
<g clip-path="url(#clip0_2197_2187)">
<path fill-rule="evenodd" clip-rule="evenodd" d="M0 70.62C0 91.1783 16.8734 108 37.5 108C58.1266 108 75 91.1807 75 70.62V33.2397H37.5C16.8734 33.2422 0 50.0617 0 70.62ZM37.5 88.534C27.613 88.534 19.5164 80.4754 19.5164 70.62C19.5164 60.7646 27.6155 52.6938 37.5 52.6938H55.4714V70.62C55.4714 80.4754 47.387 88.534 37.5 88.534Z" fill="#49A2A8"/>
<path fill-rule="evenodd" clip-rule="evenodd" d="M72.1481 20.6697C68.3463 24.4593 62.1227 24.4641 58.3209 20.6745C54.5192 16.8849 54.5192 10.6763 58.3209 6.88666L65.2321 0L72.1481 6.89393C75.9498 10.6835 75.9498 16.8825 72.1481 20.6697Z" fill="#97D8D2"/>
</g>
<defs>
<clipPath id="clip0_2197_2187">
<rect width="75" height="108" fill="white"/>
</clipPath>
</defs>
</svg>
