<svg width="65" height="49" viewBox="0 0 65 49" fill="none" xmlns="http://www.w3.org/2000/svg">
<path d="M22.8898 0.171109C23.1228 0.0570363 23.5887 0 24.2876 0C24.9866 0 26.3844 0.342221 28.4812 1.02666C30.578 1.7111 31.9176 2.28147 32.5 2.73777C28.0735 7.64295 23.2975 13.5178 18.172 20.3622C21.4337 21.1607 24.1711 22.8148 26.3844 25.3244C28.5977 27.8341 29.7043 30.914 29.7043 34.5644C29.7043 38.1007 28.3065 41.2377 25.5108 43.9755C22.8315 46.7133 19.6864 48.0822 16.0753 48.0822C15.8423 48.0822 15.6676 48.0822 15.5511 48.0822C11.1246 48.0822 7.39695 46.8274 4.36828 44.3177C1.45609 41.8081 0 38.0437 0 33.0244C0.116487 28.0052 2.73746 22.2444 7.8629 15.7422C13.1048 9.23999 18.1138 4.04962 22.8898 0.171109ZM55.7392 0.171109C55.9722 0.0570363 56.3799 0 56.9624 0C57.6613 0 59.1174 0.399257 61.3307 1.19777C63.5439 1.88221 64.767 2.39555 65 2.73777C59.1756 9.35407 54.5161 15.2289 51.0215 20.3622C54.2832 21.1607 56.9624 22.8148 59.0591 25.3244C61.2724 27.72 62.379 30.8 62.379 34.5644C62.379 38.2148 61.0394 41.4089 58.3602 44.1466C55.681 46.7703 52.4776 48.0822 48.75 48.0822C48.517 48.0822 48.3423 48.0822 48.2258 48.0822C43.9158 48.0822 40.2464 46.8274 37.2177 44.3177C34.3056 41.8081 32.8495 38.5 32.8495 34.3933C32.8495 30.1726 34.4803 25.4955 37.7419 20.3622C42.7509 12.6052 48.75 5.87481 55.7392 0.171109Z" fill="#49A2A8"/>
</svg>
