<svg width="28" height="28" viewBox="0 0 28 28" fill="none" xmlns="http://www.w3.org/2000/svg">
<path d="M14 0C6.27984 0 0 6.27984 0 14C0 21.7202 6.27984 28 14 28C21.7202 28 28 21.7202 28 14C28 6.27984 21.7202 0 14 0ZM20.8398 11.275C20.8454 11.4184 20.8499 11.5651 20.8499 11.7118C20.8499 16.1661 17.4574 21.3046 11.256 21.3046C9.352 21.3046 7.57904 20.7469 6.0872 19.7893C6.3504 19.8206 6.61808 19.8363 6.89136 19.8363C8.47168 19.8363 9.92544 19.2987 11.079 18.3938C9.604 18.3669 8.35968 17.3902 7.92848 16.0518C8.13456 16.091 8.34624 16.1123 8.56352 16.1123C8.8704 16.1123 9.16944 16.072 9.45056 15.9936C7.90944 15.6822 6.74688 14.3214 6.74688 12.6874V12.6448C7.2016 12.8979 7.72128 13.0491 8.27456 13.067C7.36848 12.4611 6.77488 11.4307 6.77488 10.2603C6.77488 9.64208 6.94064 9.06416 7.23072 8.56464C8.89392 10.6042 11.3792 11.947 14.1803 12.0882C14.1221 11.8406 14.0918 11.5842 14.0918 11.3198C14.0918 9.45728 15.6016 7.94864 17.4642 7.94864C18.4341 7.94864 19.3099 8.35744 19.9248 9.01376C20.692 8.86256 21.4144 8.58256 22.0662 8.19616C21.8154 8.9824 21.28 9.6432 20.5834 10.061C21.2666 9.97808 21.915 9.79776 22.521 9.53008C22.0696 10.2066 21.4973 10.8013 20.8398 11.2762V11.275Z" fill="#1DA1F2"/>
</svg>
